<svg xmlns="http://www.w3.org/2000/svg" xmlns:xlink="http://www.w3.org/1999/xlink" x="0" y="0" version="1.1" xml:space="preserve"><g id="Layer_3"><linearGradient id="SVGID_1_" x1="-422.204" x2="2261.033" y1="144.021" y2="144.021" gradientUnits="userSpaceOnUse"><stop offset="0" style="stop-color:#00aeef"/><stop offset="1" style="stop-color:#2e3192"/></linearGradient><path fill="url(#SVGID_1_)" d="M-422.204,206.913c0,0,173.292,111.168,438.823-0.001 c154.115-64.523,276.128-60.886,421.022,12.909c109.477,55.758,243.895,91.25,368.21,91.796 c104.42,0.459,205.692-20.687,295.24-72.942c310.249-181.045,486.337,0,486.337,0s310.249,250.923,673.604-19.057V-56.715H-421.195 L-422.204,206.913z" opacity=".5"><animateTransform attributeName="transform" attributeType="XML" dur="25" repeatCount="indefinite" type="translate" values="150,0;-150,0;150,0;"/></path></g><g id="Layer_2"><linearGradient id="SVGID_2_" x1="-420.541" x2="2257.896" y1="112.531" y2="112.531" gradientUnits="userSpaceOnUse"><stop offset="0" style="stop-color:#262262"/><stop offset="1" style="stop-color:#00aeef"/></linearGradient><path fill="url(#SVGID_2_)" d="M-420.541,164.707c0,0,172.982,92.226,438.049-0.004 c101.218-35.218,208.451-48.944,314.181-24.364c73.381,17.059,141.142,50.094,213.293,71.037 c179,51.959,384.443,62.422,555.047-20.318c309.694-150.197,485.467,0,485.467,0s309.694,208.168,672.399-15.81V-54.001h-2677.43 L-420.541,164.707z" opacity=".5"><animateTransform attributeName="transform" attributeType="XML" dur="20" repeatCount="indefinite" type="translate" values="150,0;-150,0;150,0;"/></path></g><g id="Layer_1"><linearGradient id="SVGID_3_" x1="-427.022" x2="2261.015" y1="95.573" y2="95.573" gradientUnits="userSpaceOnUse"><stop offset="0" style="stop-color:#00aeef"/><stop offset="1" style="stop-color:#2b3990"/></linearGradient><path fill="url(#SVGID_3_)" d="M-427.022,147.749c0,0,173.602,92.226,439.609-0.001 c196.78-68.225,341.498-5.243,528.774,46.796c181.043,50.307,385.075,62.947,557.638-20.444c310.804-150.197,487.207,0,487.207,0 s310.804,208.168,674.809-15.81V-70.96H-426.011L-427.022,147.749z" opacity=".5"><animateTransform attributeName="transform" attributeType="XML" dur="15" repeatCount="indefinite" type="translate" values="150,0;-150,0;150,0;"/></path></g></svg>